<?xml version="1.0" encoding="utf-8"?>
<!-- Generator: Adobe Illustrator 14.0.0, SVG Export Plug-In . SVG Version: 6.00 Build 43363)  -->
<!DOCTYPE svg PUBLIC "-//W3C//DTD SVG 1.1//EN" "http://www.w3.org/Graphics/SVG/1.1/DTD/svg11.dtd">
<svg version="1.1" id="Calque_1" xmlns="http://www.w3.org/2000/svg" xmlns:xlink="http://www.w3.org/1999/xlink" x="0px" y="0px"
	 width="1877.805px" height="521.459px" viewBox="0 0 1877.805 521.459" enable-background="new 0 0 1877.805 521.459"
	 xml:space="preserve" preserveAspectRatio="none">
<g>
	<path d="M341.357,144.849c-6.523-10.471-14.66-19.654-24.433-27.572c-9.773-7.908-20.833-14.071-33.159-18.5
		c-12.336-4.417-25.25-6.631-38.743-6.631c-24.673,0-45.615,4.777-62.826,14.31c-17.223,9.545-31.185,22.338-41.885,38.394
		c-10.711,16.057-18.499,34.326-23.385,54.799c-4.886,20.484-7.33,41.656-7.33,63.524c0,20.942,2.444,41.307,7.33,61.082
		c4.887,19.785,12.674,37.587,23.385,53.402c10.7,15.827,24.662,28.512,41.885,38.045c17.211,9.544,38.153,14.311,62.826,14.311
		c33.507,0,59.685-10.232,78.533-30.716c18.848-20.473,30.366-47.468,34.554-80.976h106.107
		c-2.792,31.184-10.013,59.336-21.64,84.466c-11.638,25.131-26.996,46.542-46.073,64.224c-19.088,17.69-41.426,31.184-67.015,40.488
		c-25.599,9.303-53.751,13.961-84.466,13.961c-38.165,0-72.49-6.632-102.966-19.896c-30.486-13.264-56.194-31.521-77.136-54.799
		c-20.943-23.266-36.998-50.609-48.167-82.022C5.584,333.33,0,299.472,0,263.172c0-37.227,5.584-71.78,16.754-103.663
		c11.169-31.871,27.224-59.686,48.167-83.419c20.942-23.734,46.65-42.342,77.136-55.846C172.533,6.751,206.858,0,245.023,0
		c27.454,0,53.402,3.959,77.835,11.868c24.432,7.918,46.301,19.437,65.619,34.554c19.306,15.128,35.252,33.856,47.817,56.195
		c12.566,22.338,20.474,47.938,23.735,76.787H353.922C352.057,166.838,347.868,155.321,341.357,144.849z"/>
	<path d="M787.422,11.868L973.807,510.29H860.021l-37.696-110.993H635.941L596.849,510.29H486.554L675.033,11.868H787.422z
		 M793.705,317.623l-62.827-182.895h-1.396l-64.921,182.895H793.705z"/>
	<path d="M1285.843,11.868c22.338,0,42.462,3.61,60.383,10.82c17.91,7.22,33.268,17.103,46.073,29.668
		c12.794,12.565,22.567,27.116,29.319,43.629c6.74,16.525,10.122,34.325,10.122,53.402c0,29.318-6.174,54.689-18.499,76.09
		c-12.337,21.411-32.461,37.695-60.383,48.865v1.396c13.491,3.731,24.661,9.424,33.507,17.104
		c8.835,7.678,16.056,16.753,21.64,27.225c5.585,10.471,9.653,21.989,12.217,34.555c2.552,12.565,4.297,25.131,5.235,37.695
		c0.458,7.919,0.928,17.223,1.396,27.923c0.458,10.711,1.276,21.641,2.444,32.81c1.155,11.169,3.021,21.761,5.584,31.762
		c2.553,10.014,6.392,18.499,11.519,25.479h-109.598c-6.054-15.815-9.773-34.663-11.169-56.544
		c-1.396-21.868-3.49-42.811-6.282-62.826c-3.73-26.058-11.638-45.134-23.735-57.241c-12.107-12.097-31.882-18.15-59.336-18.15
		h-109.597V510.29h-109.598V11.868H1285.843z M1246.751,237.344c25.131,0,43.979-5.585,56.544-16.754s18.848-29.319,18.848-54.449
		c0-24.192-6.282-41.765-18.848-52.705c-12.565-10.929-31.413-16.404-56.544-16.404h-120.068v140.312H1246.751z"/>
	<path d="M1469.433,104.012V11.868h408.372v92.145h-149.388V510.29h-109.598V104.012H1469.433z"/>
</g>
</svg>
