<?xml version="1.0" encoding="utf-8"?>
<!-- Generator: Adobe Illustrator 14.0.0, SVG Export Plug-In . SVG Version: 6.00 Build 43363)  -->
<!DOCTYPE svg PUBLIC "-//W3C//DTD SVG 1.1//EN" "http://www.w3.org/Graphics/SVG/1.1/DTD/svg11.dtd">
<svg version="1.1" id="Calque_1" xmlns="http://www.w3.org/2000/svg" xmlns:xlink="http://www.w3.org/1999/xlink" x="0px" y="0px"
	 width="1837.219px" height="198.44px" viewBox="0 0 1837.219 198.44" enable-background="new 0 0 1837.219 198.44"
	 xml:space="preserve" preserveAspectRatio="none">
<g>
	<path d="M41.707,4.516V194.19H0V4.516H41.707z"/>
	<path d="M119.808,4.516l79.164,127.246h0.531V4.516h39.05V194.19h-41.707L117.948,67.21h-0.531v126.98H78.366V4.516H119.808z"/>
	<path d="M408.567,4.516v35.065h-91.649v43.832h79.429v32.409h-79.429v78.367h-41.707V4.516H408.567z"/>
	<path d="M430.879,60.701c4.25-12.128,10.36-22.713,18.33-31.745c7.969-9.032,17.752-16.113,29.354-21.252
		C490.16,2.569,503.223,0,517.746,0c14.698,0,27.802,2.569,39.316,7.704c11.51,5.139,21.252,12.22,29.221,21.252
		c7.97,9.032,14.08,19.617,18.33,31.745c4.25,12.133,6.375,25.282,6.375,39.449c0,13.813-2.125,26.698-6.375,38.651
		c-4.25,11.954-10.36,22.36-18.33,31.215c-7.969,8.856-17.711,15.806-29.221,20.854c-11.515,5.047-24.618,7.57-39.316,7.57
		c-14.523,0-27.586-2.523-39.184-7.57c-11.602-5.048-21.385-11.996-29.354-20.854c-7.97-8.854-14.08-19.261-18.33-31.215
		s-6.375-24.838-6.375-38.651C424.503,85.983,426.628,72.833,430.879,60.701z M469,123.394c1.86,7.528,4.823,14.303,8.899,20.321
		c4.071,6.022,9.385,10.851,15.938,14.479c6.55,3.632,14.52,5.446,23.908,5.446c9.385,0,17.354-1.814,23.909-5.446
		c6.55-3.627,11.862-8.455,15.938-14.479c4.072-6.019,7.04-12.793,8.899-20.321c1.86-7.525,2.79-15.275,2.79-23.245
		c0-8.322-0.93-16.379-2.79-24.174c-1.859-7.791-4.827-14.744-8.899-20.854c-4.076-6.11-9.389-10.979-15.938-14.611
		c-6.555-3.627-14.523-5.445-23.909-5.445c-9.389,0-17.358,1.817-23.908,5.445c-6.554,3.633-11.867,8.501-15.938,14.611
		c-4.076,6.11-7.04,13.062-8.899,20.854c-1.859,7.795-2.789,15.852-2.789,24.174C466.21,108.119,467.14,115.869,469,123.394z"/>
	<path d="M741.688,4.516c8.5,0,16.159,1.374,22.979,4.117c6.815,2.748,12.66,6.509,17.533,11.29
		c4.869,4.782,8.588,10.319,11.157,16.604c2.564,6.289,3.852,13.062,3.852,20.322c0,11.156-2.349,20.812-7.04,28.956
		c-4.695,8.147-12.353,14.345-22.979,18.595v0.531c5.136,1.42,9.386,3.586,12.752,6.508c3.361,2.922,6.109,6.376,8.234,10.359
		c2.125,3.985,3.674,8.368,4.649,13.15c0.971,4.782,1.636,9.563,1.993,14.345c0.174,3.014,0.353,6.555,0.53,10.626
		c0.175,4.076,0.485,8.235,0.931,12.485c0.439,4.25,1.149,8.28,2.125,12.087c0.971,3.812,2.433,7.04,4.383,9.696H761.08
		c-2.305-6.02-3.719-13.191-4.25-21.519c-0.531-8.321-1.328-16.292-2.391-23.909c-1.42-9.915-4.43-17.176-9.032-21.782
		c-4.607-4.604-12.132-6.907-22.58-6.907H681.12v74.116h-41.707V4.516H741.688z M726.812,90.321c9.562,0,16.735-2.125,21.518-6.376
		c4.782-4.25,7.172-11.157,7.172-20.721c0-9.206-2.391-15.894-7.172-20.057c-4.782-4.159-11.954-6.243-21.518-6.243H681.12v53.396
		H726.812z"/>
	<path d="M889.917,4.516L934.28,134.95h0.531L976.784,4.516h58.709V194.19h-39.051V59.771h-0.531l-46.488,134.418h-32.143
		L870.79,61.099h-0.531v133.09h-39.051V4.516H889.917z"/>
	<path d="M1166.723,4.516l70.928,189.674h-43.301l-14.346-42.238h-70.928L1094.2,194.19h-41.973l71.727-189.674H1166.723z
		 M1169.114,120.87l-23.908-69.6h-0.531l-24.705,69.6H1169.114z"/>
	<path d="M1214.805,39.582V4.516h155.404v35.065h-56.848V194.19h-41.707V39.582H1214.805z"/>
	<path d="M1433.7,4.516V194.19h-41.707V4.516H1433.7z"/>
	<path d="M1468.499,60.701c4.25-12.128,10.361-22.713,18.33-31.745s17.752-16.113,29.354-21.252
		C1527.78,2.569,1540.842,0,1555.366,0c14.697,0,27.803,2.569,39.314,7.704c11.512,5.139,21.252,12.22,29.223,21.252
		s14.08,19.617,18.33,31.745c4.25,12.133,6.375,25.282,6.375,39.449c0,13.813-2.125,26.698-6.375,38.651
		c-4.25,11.954-10.359,22.36-18.33,31.215c-7.969,8.856-17.711,15.806-29.223,20.854c-11.514,5.047-24.617,7.57-39.314,7.57
		c-14.523,0-27.586-2.523-39.184-7.57c-11.602-5.048-21.385-11.996-29.354-20.854c-7.969-8.854-14.08-19.261-18.33-31.215
		s-6.375-24.838-6.375-38.651C1462.124,85.983,1464.249,72.833,1468.499,60.701z M1506.62,123.394
		c1.859,7.528,4.822,14.303,8.898,20.321c4.072,6.022,9.385,10.851,15.938,14.479c6.551,3.632,14.521,5.446,23.91,5.446
		c9.385,0,17.354-1.814,23.908-5.446c6.549-3.627,11.863-8.455,15.938-14.479c4.072-6.019,7.039-12.793,8.898-20.321
		c1.859-7.525,2.791-15.275,2.791-23.245c0-8.322-0.932-16.379-2.791-24.174c-1.859-7.791-4.826-14.744-8.898-20.854
		c-4.074-6.11-9.389-10.979-15.938-14.611c-6.555-3.627-14.523-5.445-23.908-5.445c-9.391,0-17.359,1.817-23.91,5.445
		c-6.553,3.633-11.865,8.501-15.938,14.611c-4.076,6.11-7.039,13.062-8.898,20.854c-1.859,7.795-2.789,15.852-2.789,24.174
		C1503.831,108.119,1504.758,115.869,1506.62,123.394z"/>
	<path d="M1718.475,4.516l79.162,127.246h0.531V4.516h39.051V194.19h-41.707l-78.896-126.98h-0.531v126.98h-39.051V4.516H1718.475z"
		/>
</g>
</svg>
