<?xml version="1.0" encoding="utf-8"?>
<!-- Generator: Adobe Illustrator 14.0.0, SVG Export Plug-In . SVG Version: 6.00 Build 43363)  -->
<!DOCTYPE svg PUBLIC "-//W3C//DTD SVG 1.1//EN" "http://www.w3.org/Graphics/SVG/1.1/DTD/svg11.dtd">
<svg version="1.1" id="Calque_1" xmlns="http://www.w3.org/2000/svg" xmlns:xlink="http://www.w3.org/1999/xlink" x="0px" y="0px"
	 width="1846.946px" height="381.021px" viewBox="0 0 1846.946 381.021" enable-background="new 0 0 1846.946 381.021"
	 xml:space="preserve" preserveAspectRatio="none">
<g>
	<path d="M112.725,8.671l85.182,250.444h1.02L279.518,8.671h112.726v364.19h-74.98V114.766h-1.02L226.98,372.861h-61.718L76,117.316
		h-1.02v255.545H0V8.671H112.725z"/>
	<path d="M735.008,8.671V76H542.712v78.041h176.484v62.229H542.712v89.262h196.377v67.33H462.631V8.671H735.008z"/>
	<path d="M989.53,8.671c16.322,0,31.025,2.638,44.121,7.906c13.086,5.276,24.307,12.497,33.664,21.678
		c9.348,9.182,16.49,19.813,21.422,31.879c4.926,12.074,7.396,25.081,7.396,39.021c0,21.423-4.51,39.96-13.516,55.597
		c-9.016,15.646-23.719,27.545-44.121,35.705v1.021c9.857,2.725,18.02,6.885,24.482,12.496c6.455,5.611,11.732,12.242,15.812,19.893
		s7.053,16.066,8.926,25.248c1.865,9.182,3.141,18.363,3.826,27.545c0.334,5.785,0.678,12.584,1.02,20.402
		c0.336,7.826,0.934,15.812,1.785,23.973c0.846,8.162,2.207,15.9,4.08,23.209c1.865,7.316,4.672,13.516,8.416,18.617h-80.08
		c-4.424-11.557-7.141-25.328-8.16-41.316c-1.021-15.979-2.551-31.281-4.592-45.906c-2.725-19.039-8.504-32.979-17.342-41.826
		c-8.846-8.838-23.297-13.262-43.355-13.262h-80.082v142.311h-80.081V8.671H989.53z M960.966,173.423
		c18.363,0,32.135-4.08,41.316-12.242c9.18-8.16,13.771-21.422,13.771-39.785c0-17.677-4.592-30.517-13.771-38.51
		c-9.182-7.986-22.953-11.987-41.316-11.987h-87.732v102.524H960.966z"/>
	<path d="M1395.026,105.839c-4.766-7.651-10.711-14.362-17.852-20.148c-7.143-5.778-15.223-10.281-24.229-13.517
		c-9.014-3.228-18.451-4.846-28.309-4.846c-18.029,0-33.33,3.491-45.906,10.457c-12.586,6.974-22.787,16.322-30.605,28.054
		c-7.826,11.731-13.516,25.081-17.086,40.041c-3.57,14.967-5.355,30.436-5.355,46.416c0,15.301,1.785,30.182,5.355,44.631
		c3.57,14.457,9.26,27.463,17.086,39.02c7.818,11.564,18.02,20.834,30.605,27.799c12.576,6.975,27.877,10.457,45.906,10.457
		c24.482,0,43.609-7.477,57.383-22.443c13.771-14.959,22.188-34.686,25.248-59.168h77.529c-2.039,22.785-7.316,43.355-15.811,61.719
		c-8.504,18.361-19.727,34.008-33.666,46.926c-13.947,12.928-30.27,22.785-48.967,29.584c-18.705,6.799-39.275,10.201-61.717,10.201
		c-27.887,0-52.969-4.846-75.236-14.537c-22.275-9.691-41.061-23.031-56.361-40.039c-15.303-17-27.035-36.98-35.195-59.934
		c-8.162-22.953-12.242-47.691-12.242-74.215c0-27.201,4.08-52.449,12.242-75.746c8.16-23.288,19.893-43.611,35.195-60.953
		c15.301-17.343,34.086-30.939,56.361-40.806C1271.669,4.933,1296.751,0,1324.638,0c20.059,0,39.02,2.893,56.871,8.671
		c17.854,5.786,33.832,14.203,47.947,25.249c14.107,11.054,25.758,24.738,34.939,41.061s14.959,35.027,17.342,56.108h-77.529
		C1402.845,121.906,1399.784,113.49,1395.026,105.839z"/>
	<path d="M1619.456,8.671v139.758h147.41V8.671h80.08v364.19h-80.08V215.759h-147.41v157.102h-80.082V8.671H1619.456z"/>
</g>
</svg>
