<?xml version="1.0" encoding="utf-8"?>
<!-- Generator: Adobe Illustrator 14.0.0, SVG Export Plug-In . SVG Version: 6.00 Build 43363)  -->
<!DOCTYPE svg PUBLIC "-//W3C//DTD SVG 1.1//EN" "http://www.w3.org/Graphics/SVG/1.1/DTD/svg11.dtd">
<svg version="1.1" id="Calque_1" xmlns="http://www.w3.org/2000/svg" xmlns:xlink="http://www.w3.org/1999/xlink" x="0px" y="0px"
	 width="1866.705px" height="163.321px" viewBox="0 0 1866.705 163.321" enable-background="new 0 0 1866.705 163.321"
	 xml:space="preserve" preserveAspectRatio="none">
<g>
	<path d="M48.319,3.716l36.512,107.351h0.438L119.813,3.716h48.318v156.106h-32.14V49.193h-0.437L97.293,159.823H70.838
		L32.577,50.286H32.14v109.537H0V3.716H48.319z"/>
	<path d="M315.055,3.716v28.86h-82.426v33.452h75.648v26.673h-75.648v38.261h84.175v28.86H198.303V3.716H315.055z"/>
	<path d="M424.153,3.716c6.996,0,13.299,1.131,18.912,3.389c5.609,2.262,10.419,5.356,14.43,9.292
		c4.008,3.936,7.068,8.493,9.183,13.665c2.112,5.176,3.17,10.751,3.17,16.726c0,9.183-1.933,17.129-5.793,23.832
		c-3.864,6.706-10.167,11.806-18.913,15.304v0.438c4.226,1.168,7.725,2.952,10.495,5.356c2.767,2.405,5.028,5.248,6.777,8.527
		c1.75,3.279,3.023,6.887,3.826,10.823c0.799,3.935,1.346,7.871,1.64,11.806c0.144,2.48,0.29,5.394,0.437,8.746
		c0.144,3.354,0.399,6.778,0.765,10.276c0.362,3.498,0.946,6.815,1.749,9.948c0.799,3.136,2.002,5.794,3.607,7.98h-34.326
		c-1.896-4.953-3.061-10.856-3.499-17.709c-0.437-6.849-1.093-13.409-1.967-19.677c-1.168-8.161-3.645-14.136-7.434-17.928
		c-3.792-3.789-9.985-5.685-18.584-5.685h-34.326v61h-34.326V3.716H424.153z M411.909,74.336c7.871,0,13.774-1.75,17.709-5.248
		s5.903-9.183,5.903-17.054c0-7.577-1.968-13.081-5.903-16.507c-3.936-3.423-9.838-5.138-17.709-5.138h-37.605v43.946H411.909z"/>
	<path d="M597.965,45.367c-2.043-3.28-4.591-6.156-7.652-8.636c-3.061-2.477-6.525-4.407-10.385-5.794
		c-3.863-1.384-7.908-2.077-12.134-2.077c-7.727,0-14.286,1.497-19.677,4.482c-5.395,2.989-9.768,6.997-13.118,12.025
		c-3.355,5.028-5.794,10.75-7.325,17.163c-1.53,6.416-2.295,13.046-2.295,19.896c0,6.559,0.765,12.937,2.295,19.131
		c1.531,6.197,3.97,11.772,7.325,16.726c3.351,4.957,7.724,8.93,13.118,11.916c5.391,2.989,11.95,4.482,19.677,4.482
		c10.495,0,18.694-3.204,24.597-9.62c5.903-6.412,9.511-14.867,10.822-25.362h33.233c-0.875,9.767-3.136,18.584-6.778,26.455
		c-3.645,7.871-8.455,14.578-14.43,20.114c-5.979,5.542-12.975,9.767-20.989,12.682c-8.018,2.914-16.835,4.373-26.455,4.373
		c-11.953,0-22.704-2.077-32.249-6.231c-9.548-4.155-17.6-9.873-24.159-17.163c-6.559-7.287-11.588-15.851-15.086-25.69
		c-3.498-9.839-5.247-20.442-5.247-31.812c0-11.66,1.749-22.482,5.247-32.468c3.499-9.982,8.527-18.693,15.086-26.127
		c6.559-7.434,14.611-13.262,24.159-17.491C545.089,2.115,555.84,0,567.793,0c8.599,0,16.726,1.24,24.378,3.716
		c7.652,2.48,14.502,6.088,20.552,10.823c6.046,4.738,11.041,10.604,14.976,17.601c3.936,6.996,6.413,15.014,7.434,24.05h-33.233
		C601.317,52.254,600.005,48.646,597.965,45.367z"/>
	<path d="M694.165,3.716v59.907h63.186V3.716h34.326v156.106h-34.326v-67.34h-63.186v67.34h-34.326V3.716H694.165z"/>
	<path d="M899.683,3.716l58.375,156.106H922.42l-11.806-34.763h-58.376l-12.244,34.763H805.45L864.482,3.716H899.683z
		 M901.65,99.479l-19.677-57.283h-0.437l-20.334,57.283H901.65z"/>
	<path d="M1005.72,3.716l65.153,104.727h0.438V3.716h32.14v156.106h-34.326l-64.936-104.508h-0.437v104.508h-32.14V3.716H1005.72z"
		/>
	<path d="M1200.961,3.716c10.059,0,19.422,1.606,28.096,4.811c8.67,3.208,16.179,8.018,22.519,14.43
		c6.341,6.416,11.295,14.43,14.868,24.05c3.569,9.62,5.356,20.918,5.356,33.889c0,11.369-1.459,21.863-4.373,31.483
		c-2.917,9.62-7.324,17.928-13.228,24.924c-5.903,6.997-13.265,12.5-22.082,16.507c-8.821,4.011-19.206,6.013-31.156,6.013h-67.339
		V3.716H1200.961z M1198.557,130.963c4.953,0,9.764-0.799,14.43-2.405c4.664-1.603,8.817-4.264,12.462-7.98
		c3.643-3.717,6.56-8.561,8.746-14.539c2.186-5.975,3.279-13.262,3.279-21.864c0-7.871-0.766-14.977-2.296-21.317
		c-1.53-6.341-4.044-11.769-7.543-16.289c-3.498-4.516-8.127-7.98-13.883-10.385c-5.76-2.405-12.865-3.607-21.317-3.607h-24.486
		v98.386H1198.557z"/>
	<path d="M1329.958,3.716v156.106h-34.326V3.716H1329.958z"/>
	<path d="M1386.365,121.343c1.893,3.646,4.407,6.597,7.543,8.855c3.133,2.262,6.812,3.936,11.041,5.028
		c4.227,1.093,8.599,1.64,13.118,1.64c3.062,0,6.341-0.252,9.839-0.765c3.498-0.509,6.777-1.492,9.839-2.951
		c3.061-1.455,5.609-3.46,7.651-6.012c2.04-2.549,3.062-5.794,3.062-9.73c0-4.226-1.349-7.652-4.045-10.275
		c-2.698-2.624-6.23-4.81-10.604-6.56c-4.372-1.749-9.33-3.279-14.868-4.591c-5.541-1.312-11.149-2.767-16.835-4.373
		c-5.831-1.455-11.516-3.242-17.053-5.356c-5.542-2.111-10.495-4.844-14.867-8.199c-4.373-3.351-7.909-7.542-10.604-12.571
		c-2.699-5.029-4.046-11.113-4.046-18.256c0-8.014,1.713-14.977,5.139-20.879c3.423-5.903,7.904-10.823,13.445-14.758
		c5.538-3.936,11.808-6.849,18.803-8.746C1399.92,0.95,1406.917,0,1413.914,0c8.161,0,15.994,0.912,23.503,2.733
		c7.506,1.824,14.174,4.776,20.005,8.854c5.828,4.083,10.457,9.292,13.884,15.633c3.423,6.34,5.138,14.03,5.138,23.066h-33.232
		c-0.294-4.663-1.277-8.527-2.951-11.588c-1.678-3.061-3.901-5.466-6.669-7.215c-2.771-1.749-5.94-2.986-9.511-3.717
		c-3.573-0.728-7.472-1.093-11.696-1.093c-2.771,0-5.541,0.293-8.309,0.874c-2.771,0.584-5.285,1.605-7.543,3.062
		c-2.262,1.458-4.12,3.279-5.575,5.466c-1.459,2.186-2.187,4.957-2.187,8.308c0,3.061,0.581,5.541,1.749,7.433
		c1.165,1.896,3.461,3.646,6.887,5.248c3.424,1.605,8.161,3.208,14.212,4.81c6.047,1.605,13.954,3.645,23.722,6.122
		c2.914,0.584,6.959,1.64,12.135,3.17c5.172,1.53,10.31,3.973,15.413,7.324c5.101,3.354,9.511,7.837,13.228,13.446
		c3.717,5.612,5.576,12.79,5.576,21.535c0,7.144-1.388,13.774-4.154,19.896c-2.771,6.122-6.888,11.406-12.354,15.851
		c-5.466,4.448-12.244,7.908-20.333,10.385c-8.09,2.477-17.456,3.717-28.095,3.717c-8.602,0-16.944-1.059-25.034-3.17
		c-8.09-2.111-15.232-5.428-21.426-9.948c-6.197-4.516-11.116-10.276-14.759-17.272c-3.645-6.997-5.394-15.305-5.246-24.925h33.231
		C1383.522,113.253,1384.469,117.701,1386.365,121.343z"/>
	<path d="M1536.346,3.716v156.106h-34.326V3.716H1536.346z"/>
	<path d="M1600.625,3.716l65.153,104.727h0.437V3.716h32.14v156.106h-34.325l-64.936-104.508h-0.438v104.508h-32.139V3.716H1600.625
		z"/>
	<path d="M1821.009,158.621c-7.434,3.132-14.941,4.701-22.519,4.701c-11.953,0-22.704-2.077-32.249-6.231
		c-9.549-4.155-17.601-9.873-24.16-17.163c-6.559-7.287-11.587-15.851-15.085-25.69c-3.499-9.839-5.247-20.442-5.247-31.812
		c0-11.66,1.748-22.482,5.247-32.468c3.498-9.982,8.526-18.693,15.085-26.127c6.56-7.434,14.611-13.262,24.16-17.491
		c9.545-4.226,20.296-6.34,32.249-6.34c8.014,0,15.775,1.202,23.284,3.607c7.505,2.405,14.283,5.94,20.334,10.604
		c6.046,4.667,11.041,10.423,14.976,17.272c3.937,6.853,6.341,14.724,7.215,23.613h-32.795c-2.043-8.746-5.979-15.304-11.807-19.677
		c-5.831-4.373-12.899-6.559-21.207-6.559c-7.728,0-14.286,1.497-19.678,4.482c-5.395,2.989-9.767,6.997-13.118,12.025
		c-3.354,5.028-5.794,10.75-7.324,17.163c-1.53,6.416-2.296,13.046-2.296,19.896c0,6.559,0.766,12.937,2.296,19.131
		c1.53,6.197,3.97,11.772,7.324,16.726c3.352,4.957,7.724,8.93,13.118,11.916c5.392,2.989,11.95,4.482,19.678,4.482
		c11.369,0,20.147-2.876,26.346-8.636c6.193-5.756,9.801-14.102,10.822-25.034h-34.545V75.43h65.591v84.393h-21.863l-3.498-17.709
		C1835.221,149.984,1828.444,155.488,1821.009,158.621z"/>
</g>
</svg>
