<?xml version="1.0" encoding="utf-8"?>
<!-- Generator: Adobe Illustrator 14.0.0, SVG Export Plug-In . SVG Version: 6.00 Build 43363)  -->
<!DOCTYPE svg PUBLIC "-//W3C//DTD SVG 1.1//EN" "http://www.w3.org/Graphics/SVG/1.1/DTD/svg11.dtd">
<svg version="1.1" id="Calque_1" xmlns="http://www.w3.org/2000/svg" xmlns:xlink="http://www.w3.org/1999/xlink" x="0px" y="0px"
	 width="1868.066px" height="266.51px" viewBox="0 0 1868.066 266.51" enable-background="new 0 0 1868.066 266.51"
	 xml:space="preserve" preserveAspectRatio="none">
<g>
	<path d="M8.562,81.523C14.27,65.234,22.476,51.019,33.18,38.889c10.703-12.13,23.843-21.641,39.424-28.542
		C88.179,3.451,105.723,0,125.229,0c19.74,0,37.339,3.451,52.803,10.346c15.458,6.901,28.542,16.412,39.245,28.542
		c10.704,12.13,18.909,26.345,24.618,42.634c5.708,16.295,8.562,33.955,8.562,52.981c0,18.553-2.854,35.855-8.562,51.911
		c-5.708,16.055-13.914,30.029-24.618,41.921c-10.703,11.896-23.787,21.229-39.245,28.007
		c-15.464,6.779-33.063,10.168-52.803,10.168c-19.506,0-37.049-3.389-52.625-10.168c-15.581-6.778-28.721-16.11-39.424-28.007
		c-10.704-11.892-18.909-25.866-24.618-41.921C2.853,170.359,0,153.057,0,134.504C0,115.478,2.854,97.818,8.562,81.523z
		 M59.76,165.722c2.498,10.112,6.478,19.21,11.952,27.294c5.469,8.089,12.604,14.571,21.407,19.444
		c8.796,4.877,19.5,7.312,32.11,7.312c12.604,0,23.307-2.437,32.11-7.312c8.796-4.873,15.932-11.355,21.406-19.444
		c5.469-8.084,9.455-17.182,11.952-27.294c2.498-10.105,3.746-20.515,3.746-31.218c0-11.177-1.249-21.998-3.746-32.467
		c-2.498-10.463-6.483-19.802-11.952-28.007c-5.474-8.206-12.61-14.745-21.406-19.623c-8.803-4.872-19.506-7.314-32.11-7.314
		c-12.61,0-23.313,2.442-32.11,7.314c-8.803,4.878-15.938,11.417-21.407,19.623c-5.474,8.205-9.455,17.543-11.952,28.007
		c-2.497,10.469-3.746,21.29-3.746,32.467C56.014,145.208,57.263,155.616,59.76,165.722z"/>
	<path d="M343.932,260.803L261.517,6.065h57.441l56.728,179.103h0.713L433.84,6.065h57.797l-84.556,254.738H343.932z"/>
	<path d="M703.916,6.065V53.16H569.411v54.586h123.444v43.526H569.411v62.437H706.77v47.095H513.396V6.065H703.916z"/>
	<path d="M881.945,6.065c11.417,0,21.701,1.846,30.86,5.53c9.154,3.69,17.003,8.741,23.548,15.163
		c6.539,6.422,11.534,13.858,14.983,22.298c3.445,8.445,5.174,17.543,5.174,27.293c0,14.984-3.153,27.951-9.455,38.889
		c-6.305,10.943-16.589,19.267-30.859,24.975v0.713c6.896,1.907,12.604,4.816,17.126,8.741c4.514,3.925,8.205,8.562,11.059,13.914
		c2.855,5.352,4.935,11.237,6.244,17.66c1.305,6.423,2.197,12.845,2.676,19.267c0.234,4.047,0.476,8.802,0.713,14.271
		c0.234,5.476,0.652,11.062,1.25,16.77c0.591,5.709,1.543,11.122,2.854,16.232c1.305,5.117,3.268,9.455,5.887,13.022H907.99
		c-3.094-8.083-4.995-17.716-5.708-28.898c-0.713-11.178-1.784-21.881-3.211-32.109c-1.906-13.317-5.948-23.067-12.13-29.256
		c-6.188-6.183-16.295-9.276-30.326-9.276H800.6v99.541h-56.014V6.065H881.945z M861.966,121.304
		c12.845,0,22.478-2.854,28.899-8.562s9.633-14.985,9.633-27.829c0-12.365-3.211-21.346-9.633-26.938
		c-6.422-5.586-16.055-8.384-28.899-8.384H800.6v71.712H861.966z"/>
	<path d="M1051.055,260.803L968.64,6.065h57.44l56.728,179.103h0.714l57.44-179.103h57.798l-84.556,254.738H1051.055z"/>
	<path d="M1276.535,6.065v254.738h-56.016V6.065H1276.535z"/>
	<path d="M1516.287,6.065V53.16h-134.504v54.586h123.443v43.526h-123.443v62.437h137.357v47.095h-193.373V6.065H1516.287z"/>
	<path d="M1743.909,260.803l-43.17-173.393h-0.714l-42.457,173.393h-56.728l-67.43-254.738h56.014l40.315,173.395h0.714
		l44.239-173.395h52.447l43.525,175.534h0.714l41.743-175.534h54.943l-68.502,254.738H1743.909z"/>
</g>
</svg>
