<?xml version="1.0" encoding="utf-8"?>
<!-- Generator: Adobe Illustrator 14.0.0, SVG Export Plug-In . SVG Version: 6.00 Build 43363)  -->
<!DOCTYPE svg PUBLIC "-//W3C//DTD SVG 1.1//EN" "http://www.w3.org/Graphics/SVG/1.1/DTD/svg11.dtd">
<svg version="1.1" id="Calque_1" xmlns="http://www.w3.org/2000/svg" xmlns:xlink="http://www.w3.org/1999/xlink" x="0px" y="0px"
	 width="1886.244px" height="381.021px" viewBox="0 0 1886.244 381.021" enable-background="new 0 0 1886.244 381.021"
	 xml:space="preserve" preserveAspectRatio="none">
<g>
	<path d="M84.181,283.087c4.416,8.504,10.281,15.391,17.598,20.658c7.308,5.277,15.892,9.182,25.758,11.732
		c9.859,2.551,20.06,3.824,30.604,3.824c7.141,0,14.792-0.59,22.953-1.785c8.161-1.188,15.812-3.482,22.953-6.885
		c7.141-3.396,13.086-8.074,17.853-14.027c4.758-5.945,7.141-13.518,7.141-22.697c0-9.859-3.148-17.854-9.437-23.975
		c-6.296-6.121-14.537-11.221-24.738-15.301c-10.201-4.082-21.766-7.652-34.685-10.713c-12.927-3.061-26.014-6.455-39.275-10.201
		c-13.604-3.395-26.866-7.562-39.785-12.496c-12.927-4.926-24.483-11.301-34.685-19.127c-10.201-7.818-18.45-17.598-24.738-29.33
		c-6.296-11.73-9.436-25.925-9.436-42.59c0-18.697,3.993-34.939,11.986-48.711c7.986-13.772,18.442-25.249,31.37-34.43
		c12.919-9.181,27.543-15.979,43.866-20.403C115.806,2.215,132.128,0,148.45,0c19.04,0,37.314,2.128,54.832,6.376
		c17.51,4.256,33.067,11.142,46.671,20.658c13.597,9.524,24.396,21.678,32.39,36.47c7.986,14.792,11.986,32.732,11.986,53.812
		h-77.53c-0.686-10.879-2.981-19.893-6.886-27.034C206,83.141,200.812,77.53,194.356,73.45c-6.464-4.081-13.86-6.965-22.188-8.671
		c-8.336-1.698-17.43-2.55-27.289-2.55c-6.463,0-12.927,0.685-19.382,2.04c-6.464,1.363-12.33,3.746-17.598,7.141
		c-5.276,3.403-9.611,7.651-13.007,12.751c-3.403,5.101-5.101,11.564-5.101,19.383c0,7.141,1.355,12.927,4.081,17.342
		c2.718,4.423,8.074,8.504,16.067,12.242c7.986,3.746,19.04,7.482,33.154,11.221c14.106,3.746,32.557,8.504,55.343,14.283
		c6.798,1.361,16.234,3.824,28.309,7.395c12.066,3.57,24.053,9.27,35.96,17.088c11.899,7.826,22.188,18.283,30.859,31.369
		c8.671,13.094,13.007,29.84,13.007,50.242c0,16.664-3.236,32.135-9.691,46.416c-6.463,14.281-16.067,26.611-28.819,36.98
		c-12.751,10.377-28.563,18.449-47.436,24.229c-18.873,5.777-40.726,8.67-65.544,8.67c-20.068,0-39.53-2.471-58.403-7.396
		c-18.873-4.924-35.538-12.664-49.987-23.207c-14.458-10.537-25.934-23.973-34.43-40.295C3.758,293.8-0.323,274.417,0.02,251.974
		h77.53C77.55,264.216,79.758,274.593,84.181,283.087z"/>
	<path d="M350.431,116.551c8.161-23.288,19.893-43.611,35.194-60.953c15.302-17.343,34.087-30.939,56.363-40.806
		C464.255,4.933,489.336,0,517.223,0c28.221,0,53.382,4.933,75.49,14.792c22.1,9.867,40.805,23.463,56.107,40.806
		c15.302,17.342,27.034,37.665,35.195,60.953c8.161,23.296,12.242,48.544,12.242,75.746c0,26.523-4.081,51.262-12.242,74.215
		s-19.893,42.934-35.195,59.934c-15.302,17.008-34.007,30.348-56.107,40.039c-22.108,9.691-47.269,14.537-75.49,14.537
		c-27.887,0-52.968-4.846-75.235-14.537c-22.276-9.691-41.061-23.031-56.363-40.039c-15.302-17-27.034-36.98-35.194-59.934
		c-8.161-22.953-12.242-47.691-12.242-74.215C338.189,165.095,342.27,139.847,350.431,116.551z M423.625,236.927
		c3.57,14.457,9.261,27.463,17.087,39.02c7.819,11.564,18.02,20.834,30.604,27.799c12.576,6.975,27.878,10.457,45.906,10.457
		c18.02,0,33.322-3.482,45.906-10.457c12.576-6.965,22.777-16.234,30.604-27.799c7.818-11.557,13.517-24.562,17.087-39.02
		c3.57-14.449,5.355-29.33,5.355-44.631c0-15.98-1.785-31.449-5.355-46.416c-3.571-14.96-9.269-28.31-17.087-40.041
		c-7.827-11.732-18.028-21.08-30.604-28.054c-12.584-6.966-27.887-10.457-45.906-10.457c-18.028,0-33.33,3.491-45.906,10.457
		c-12.584,6.974-22.786,16.322-30.604,28.054c-7.826,11.731-13.517,25.081-17.087,40.041c-3.571,14.967-5.356,30.436-5.356,46.416
		C418.27,207.597,420.055,222.478,423.625,236.927z"/>
	<path d="M984.447,105.839c-4.768-7.651-10.713-14.362-17.854-20.148c-7.141-5.778-15.223-10.281-24.229-13.517
		c-9.013-3.228-18.45-4.846-28.308-4.846c-18.028,0-33.33,3.491-45.906,10.457c-12.584,6.974-22.786,16.322-30.604,28.054
		c-7.826,11.731-13.517,25.081-17.087,40.041c-3.571,14.967-5.356,30.436-5.356,46.416c0,15.301,1.785,30.182,5.356,44.631
		c3.57,14.457,9.261,27.463,17.087,39.02c7.819,11.564,18.02,20.834,30.604,27.799c12.576,6.975,27.878,10.457,45.906,10.457
		c24.484,0,43.611-7.477,57.382-22.443c13.771-14.959,22.188-34.686,25.248-59.168h77.531c-2.041,22.785-7.316,43.355-15.812,61.719
		c-8.504,18.361-19.725,34.008-33.664,46.926c-13.947,12.928-30.27,22.785-48.967,29.584c-18.705,6.799-39.275,10.201-61.718,10.201
		c-27.887,0-52.968-4.846-75.235-14.537c-22.276-9.691-41.061-23.031-56.363-40.039c-15.302-17-27.034-36.98-35.194-59.934
		c-8.161-22.953-12.242-47.691-12.242-74.215c0-27.201,4.081-52.449,12.242-75.746c8.161-23.288,19.893-43.611,35.194-60.953
		c15.302-17.343,34.087-30.939,56.363-40.806C861.089,4.933,886.17,0,914.057,0c20.06,0,39.021,2.893,56.873,8.671
		c17.852,5.786,33.832,14.203,47.947,25.249c14.105,11.054,25.758,24.738,34.939,41.061s14.959,35.027,17.342,56.108h-77.531
		C992.265,121.906,989.205,113.49,984.447,105.839z"/>
	<path d="M1208.875,8.671v364.19h-80.08V8.671H1208.875z"/>
	<path d="M1460.849,8.671l136.188,364.19h-83.141l-27.543-81.102h-136.189l-28.564,81.102h-80.59l137.719-364.19H1460.849z
		 M1465.439,232.082l-45.906-133.638h-1.02l-47.438,133.638H1465.439z"/>
	<path d="M1708.74,8.671v296.86h177.504v67.33H1628.66V8.671H1708.74z"/>
</g>
</svg>
