<?xml version="1.0" encoding="utf-8"?>
<!-- Generator: Adobe Illustrator 14.0.0, SVG Export Plug-In . SVG Version: 6.00 Build 43363)  -->
<!DOCTYPE svg PUBLIC "-//W3C//DTD SVG 1.1//EN" "http://www.w3.org/Graphics/SVG/1.1/DTD/svg11.dtd">
<svg version="1.1" id="Calque_1" xmlns="http://www.w3.org/2000/svg" xmlns:xlink="http://www.w3.org/1999/xlink" x="0px" y="0px"
	 width="1885.291px" height="193.502px" viewBox="0 0 1885.291 193.502" enable-background="new 0 0 1885.291 193.502"
	 xml:space="preserve" preserveAspectRatio="none">
<g>
	<path d="M42.752,143.767c2.242,4.318,5.221,7.815,8.937,10.491c3.712,2.68,8.071,4.663,13.082,5.958
		c5.007,1.295,10.188,1.943,15.542,1.943c3.627,0,7.512-0.3,11.657-0.907c4.146-0.604,8.03-1.77,11.656-3.497
		c3.627-1.724,6.646-4.1,9.066-7.124c2.416-3.021,3.627-6.864,3.627-11.527c0-5.006-1.599-9.065-4.793-12.175
		c-3.197-3.108-7.382-5.699-12.563-7.771c-5.181-2.072-11.054-3.887-17.614-5.44c-6.565-1.554-13.211-3.278-19.946-5.181
		c-6.909-1.725-13.644-3.842-20.205-6.348c-6.564-2.501-12.434-5.738-17.614-9.714c-5.181-3.971-9.37-8.937-12.563-14.895
		c-3.197-5.958-4.792-13.167-4.792-21.629c0-9.496,2.027-17.745,6.087-24.738c4.056-6.994,9.366-12.823,15.931-17.485
		c6.562-4.663,13.988-8.114,22.277-10.361C58.813,1.125,67.102,0,75.391,0c9.67,0,18.95,1.081,27.847,3.237
		c8.893,2.162,16.793,5.658,23.702,10.491c6.905,4.837,12.39,11.009,16.449,18.521c4.056,7.512,6.088,16.623,6.088,27.329h-39.374
		c-0.349-5.525-1.515-10.104-3.497-13.729c-1.987-3.627-4.623-6.476-7.901-8.548c-3.282-2.073-7.038-3.538-11.268-4.404
		c-4.234-0.861-8.853-1.295-13.859-1.295c-3.282,0-6.564,0.349-9.843,1.036c-3.283,0.692-6.262,1.902-8.938,3.627
		c-2.68,1.729-4.881,3.885-6.605,6.477c-1.729,2.59-2.59,5.873-2.59,9.844c0,3.626,0.688,6.564,2.072,8.807
		c1.38,2.247,4.1,4.319,8.159,6.217c4.056,1.902,9.67,3.801,16.838,5.699c7.164,1.902,16.534,4.319,28.105,7.253
		c3.453,0.692,8.245,1.943,14.377,3.756c6.128,1.813,12.216,4.707,18.263,8.679c6.043,3.975,11.268,9.285,15.672,15.931
		c4.403,6.65,6.605,15.154,6.605,25.515c0,8.464-1.644,16.319-4.922,23.573c-3.282,7.253-8.16,13.516-14.636,18.78
		c-6.477,5.27-14.507,9.37-24.091,12.305c-9.585,2.936-20.683,4.403-33.287,4.403c-10.191,0-20.075-1.255-29.659-3.756
		c-9.585-2.502-18.048-6.433-25.387-11.786c-7.342-5.353-13.17-12.175-17.484-20.464c-4.319-8.29-6.392-18.133-6.218-29.531h39.374
		C39.384,134.183,40.505,139.452,42.752,143.767z"/>
	<path d="M177.967,59.19c4.145-11.827,10.103-22.147,17.874-30.955s17.311-15.712,28.624-20.723C235.774,2.505,248.511,0,262.673,0
		c14.332,0,27.11,2.505,38.338,7.512c11.224,5.011,20.724,11.916,28.494,20.723c7.771,8.808,13.729,19.128,17.874,30.955
		c4.145,11.831,6.217,24.653,6.217,38.468c0,13.47-2.072,26.033-6.217,37.689s-10.103,21.804-17.874,30.438
		c-7.771,8.637-17.271,15.412-28.494,20.334c-11.228,4.922-24.006,7.383-38.338,7.383c-14.162,0-26.899-2.461-38.208-7.383
		c-11.313-4.922-20.853-11.697-28.624-20.334c-7.771-8.635-13.729-18.781-17.874-30.438c-4.145-11.657-6.217-24.22-6.217-37.689
		C171.75,83.844,173.823,71.021,177.967,59.19z M215.14,120.324c1.812,7.342,4.703,13.947,8.678,19.815
		c3.97,5.873,9.151,10.581,15.542,14.118c6.387,3.542,14.158,5.311,23.313,5.311c9.151,0,16.923-1.769,23.313-5.311
		c6.387-3.537,11.568-8.245,15.543-14.118c3.971-5.869,6.864-12.474,8.678-19.815c1.813-7.339,2.72-14.896,2.72-22.666
		c0-8.115-0.906-15.972-2.72-23.572c-1.813-7.597-4.707-14.377-8.678-20.335c-3.975-5.958-9.156-10.706-15.543-14.247
		c-6.391-3.538-14.162-5.312-23.313-5.312c-9.155,0-16.927,1.773-23.313,5.312c-6.391,3.542-11.572,8.289-15.542,14.247
		c-3.975,5.958-6.865,12.738-8.678,20.335c-1.813,7.601-2.721,15.457-2.721,23.572C212.419,105.429,213.327,112.986,215.14,120.324z
		"/>
	<path d="M499.955,53.75c-2.421-3.886-5.44-7.293-9.066-10.232c-3.627-2.935-7.73-5.221-12.305-6.865
		c-4.578-1.639-9.37-2.461-14.377-2.461c-9.155,0-16.927,1.773-23.313,5.312c-6.391,3.542-11.571,8.289-15.542,14.247
		c-3.975,5.958-6.865,12.737-8.678,20.335c-1.813,7.601-2.721,15.457-2.721,23.572c0,7.771,0.907,15.327,2.721,22.666
		c1.812,7.342,4.703,13.947,8.678,19.815c3.971,5.873,9.151,10.581,15.542,14.118c6.388,3.542,14.158,5.311,23.313,5.311
		c12.434,0,22.148-3.796,29.142-11.397c6.994-7.597,11.27-17.615,12.823-30.048h39.374c-1.036,11.571-3.716,22.018-8.03,31.344
		c-4.318,9.325-10.018,17.271-17.097,23.832c-7.083,6.564-15.373,11.572-24.868,15.024c-9.499,3.451-19.946,5.181-31.344,5.181
		c-14.162,0-26.899-2.461-38.208-7.383c-11.313-4.922-20.853-11.697-28.624-20.334c-7.771-8.635-13.729-18.781-17.874-30.438
		s-6.217-24.22-6.217-37.689c0-13.814,2.072-26.637,6.217-38.468c4.145-11.826,10.103-22.147,17.874-30.955
		s17.311-15.712,28.624-20.723C437.307,2.505,450.044,0,464.207,0c10.188,0,19.816,1.469,28.883,4.402
		c9.066,2.938,17.182,7.214,24.35,12.823c7.164,5.614,13.082,12.563,17.744,20.854c4.663,8.29,7.599,17.789,8.809,28.495h-39.374
		C503.924,61.91,502.371,57.636,499.955,53.75z"/>
	<path d="M613.931,4.403v184.955h-40.67V4.403H613.931z"/>
	<path d="M741.896,4.403l69.162,184.955h-42.223l-13.988-41.188h-69.164l-14.506,41.188H630.25L700.191,4.403H741.896z
		 M744.227,117.863l-23.312-67.867h-0.518l-24.092,67.867H744.227z"/>
	<path d="M867.789,4.403v150.762h90.146v34.192H827.12V4.403H867.789z"/>
	<path d="M1109.987,4.403l43.26,127.188h0.519l40.929-127.188h57.248v184.955h-38.079V58.284h-0.518l-45.332,131.073h-31.345
		l-45.332-129.778h-0.519v129.778h-38.078V4.403H1109.987z"/>
	<path d="M1426.015,4.403v34.193h-97.657V78.23h89.628v31.604h-89.628v45.332h99.729v34.192h-140.399V4.403H1426.015z"/>
	<path d="M1535.329,4.403c11.916,0,23.01,1.902,33.286,5.699c10.271,3.8,19.169,9.5,26.682,17.098
		c7.512,7.601,13.381,17.096,17.614,28.493c4.229,11.398,6.347,24.783,6.347,40.151c0,13.47-1.729,25.904-5.181,37.302
		c-3.457,11.397-8.679,21.241-15.672,29.53c-6.994,8.29-15.718,14.81-26.163,19.557c-10.451,4.752-22.755,7.124-36.913,7.124
		h-79.784V4.403H1535.329z M1532.479,155.165c5.869,0,11.567-0.947,17.098-2.85c5.523-1.897,10.445-5.051,14.766-9.455
		c4.314-4.403,7.771-10.143,10.361-17.226c2.59-7.079,3.886-15.712,3.886-25.904c0-9.324-0.907-17.744-2.721-25.256
		c-1.812-7.512-4.792-13.942-8.937-19.298c-4.146-5.351-9.63-9.455-16.449-12.304c-6.824-2.851-15.242-4.274-25.256-4.274h-29.014
		v116.568h36.266V155.165z"/>
	<path d="M1688.162,4.403v184.955h-40.669V4.403H1688.162z"/>
	<path d="M1816.126,4.403l69.164,184.955h-42.224l-13.988-41.188h-69.164l-14.506,41.188h-40.93L1774.42,4.403H1816.126z
		 M1818.458,117.863l-23.313-67.867h-0.518l-24.091,67.867H1818.458z"/>
</g>
</svg>
