<?xml version="1.0" encoding="utf-8"?>
<!-- Generator: Adobe Illustrator 14.0.0, SVG Export Plug-In . SVG Version: 6.00 Build 43363)  -->
<!DOCTYPE svg PUBLIC "-//W3C//DTD SVG 1.1//EN" "http://www.w3.org/Graphics/SVG/1.1/DTD/svg11.dtd">
<svg version="1.1" id="Calque_3" xmlns="http://www.w3.org/2000/svg" xmlns:xlink="http://www.w3.org/1999/xlink" x="0px" y="0px"
	 width="396.835px" height="384.917px" viewBox="0 0 396.835 384.917" enable-background="new 0 0 396.835 384.917"
	 xml:space="preserve">
<path fill-rule="evenodd" clip-rule="evenodd" d="M276.582,0c4.16,0,8.319,0,12.479,0c0.053,0.187,0.201,0.279,0.48,0.24
	c9.704,0.287,19.511,0.72,29.28,0.72c9.592,0,19.049,1.171,28.079,1.92c4.623,0.383,9.072,0.645,13.44,1.44
	c7.974,1.453,17.311,3.503,22.32,7.92c5.604,4.942,6.637,12.87,7.439,22.56c0.389,4.691,0.721,9.489,0.96,14.16
	c0.484,9.451,0.252,19.427,0.721,29.28c0.445,9.377,1.199,19.068,1.199,28.8c0,20.306-0.553,40.305,0.96,59.28
	c0.746,9.358,1.755,18.608,2.16,27.84c0.428,9.731,0.24,19.781,0.24,29.76c0,9.947,0.376,19.852,0.48,29.76
	c0.101,9.607-0.427,19.532-0.48,29.521c-0.054,9.972,0,20.062,0,30.24c0,10.08,0.232,20.067-0.96,29.04
	c-0.57,4.29-1.557,8.693-2.4,12.72c-3.091,14.767-7.467,23.76-25.439,23.76c-10.213,0-21.893-2.048-32.4,0
	c-4.627,0.901-9.092,2.312-13.68,3.36c-14.436,3.295-31.376,2.399-48.96,2.399c-11.391,0.001-22.612,0.443-33.6,0
	c-5.49-0.221-10.949-0.519-16.32-0.72c-5.752-0.216-11.393,0.017-17.04-0.24c-10.705-0.485-21.262-1.557-31.68-2.399
	c-5.448-0.441-10.482-0.406-15.84,0.239c-5.374,0.648-10.854,1.201-16.32,0.96c-4.934-0.217-9.557-1.463-14.4-2.64
	c-13.954-3.392-31.526-2.497-47.28-0.24c-9.479,1.358-18.798,3.601-30.48,3.601c-11.135-0.001-23.004,2.243-32.64-0.24
	c-7.83-2.018-14.873-9.629-16.32-17.76c-0.912-5.124-0.48-10.803-0.48-16.561c0-5.666-0.005-11.468,0.24-17.04
	c0.482-10.972,1.614-21.289,2.4-31.92c0.789-10.664,0.72-21.632,0.72-33.6c0-11.447,0.72-22.488,0.72-33.36
	c0-11.076,0.809-21.978,1.68-32.64c0.832-10.181,2.528-20.743,2.64-31.44c0.059-5.618-0.179-11.339,0-17.04
	c0.173-5.518,0.539-11.196,0.48-16.8c-0.114-10.856-0.96-21.875-0.96-33.12c0-10.966-0.661-22.006-1.44-32.88
	c-0.71-9.91-1.591-21.401-0.48-32.16c0.574-5.566,0.509-11.113,1.44-15.6c3.186-15.361,21.27-11.706,38.88-12.48
	c11.634-0.512,22.861-0.845,33.12-1.2c22.556-0.78,45.827,0.689,66.72-0.72c10.583-0.713,21.088-1.669,31.68-2.4
	c10.52-0.725,21.014-2.171,31.68-2.64C231.469,0.72,253.547,1.279,276.582,0z M70.662,36.72c-11.115,2.542-21.707,4.718-25.68,13.68
	c-2.051,4.627-2.137,10.549-2.88,16.8c-0.717,6.024-1.2,12.293-1.2,18.48c0,12.579,1.073,25.036,0,37.92
	c-1.038,12.46-1.77,24.472-3.12,36.24c-0.645,5.617-0.688,12.578-0.48,19.2c0.205,6.527,0.118,13.211,1.92,17.76
	c3.03,7.647,10.277,10.671,18.48,14.4c5.949,2.704,12.014,5.167,17.76,7.2c6.339,2.242,12.695,3.85,19.2,5.76
	c6.371,1.87,12.688,3.877,19.68,5.279c7.04,1.413,14.93,2.025,22.32,2.641c7.482,0.623,14.417,2.437,21.12,3.84
	c6.614,1.385,13.87,2.219,21.36,3.6c6.694,1.235,16.468,2.443,23.28,0.961c12.23-2.664,13.68-13.323,13.68-28.32
	c0-12.35,0.52-25.59,0-37.92c-0.289-6.878-0.487-13.03-2.64-17.04c-5.878-10.952-25.113-7.457-35.52-1.68
	c-6.882,3.82-11.467,9.748-13.44,16.56c-1.716,5.923,0.037,14.79-2.4,20.4c-2.459,5.664-9.727,9.893-18.24,8.16
	c-4.913-1-8.401-4.429-9.6-9.6c-1.889-8.149,1.549-15.054,0.96-23.28c-0.346-4.835-2.125-9.005-3.12-13.44
	c-0.975-4.347-1.668-9.813-0.72-15.36c1.354-7.919,6.624-13.811,14.64-15.6c4.924-1.099,10.552-0.72,16.08-0.72
	c11.14,0,20.863-2,30.24-3.6c9.783-1.669,16.519-3.846,19.68-11.76c3.201-8.013,2.525-22.801,1.2-32.16
	c-0.716-5.057-1.923-10.313-2.88-14.88c-1.092-5.215-1.972-9.888-4.08-13.68c-5.752-10.348-20.416-11.52-36.24-11.52
	c-17.392,0-35.492-0.48-52.56-0.48c-9.063,0-18.925-0.825-26.16-0.48C84.862,34.387,77.728,35.104,70.662,36.72z M246.822,48.96
	c-2.072,3.635-2.749,8.788-3.36,14.64c-0.516,4.935-1.2,10.609-1.2,16.8c0,5.809,0.268,12.329,0,18
	c-0.286,6.059,0.043,11.934,1.92,15.6c4.127,8.062,17.6,9.932,27.6,12.24c9.34,2.155,17.533,4.547,25.681,7.44
	c13.662,4.851,23.492,8.769,35.52,14.16c4.092,1.834,8.007,4.036,12.48,4.32c12.006,0.764,14.126-8.117,14.64-19.44
	c0.41-9.035,0.368-16.434,0.721-25.92c0.32-8.638,0.96-18.056,0.96-25.68c0-9.654-0.729-23.892-4.32-30.24
	c-4.84-8.555-14.876-9.054-28.08-8.64c-8.009,0.251-15.546,0-23.28,0c-7.845,0-15.492,0.332-22.8,0
	c-7.587-0.345-16.021-1.277-22.8-0.72C254.414,42.02,249.793,43.746,246.822,48.96z M243.941,189.84
	c0.574,20.638,1.22,33.903,5.521,51.12c1.744,6.982,4.098,17.004,1.92,24.96c-2.042,7.462-8.918,12.764-16.08,13.92
	c-17.608,2.844-31.778-3.388-47.52-4.08c-4.928-0.217-11.392-0.316-16.32,1.2c-5.688,1.75-9.126,5.891-10.08,12
	c-1.179,7.552-0.336,18.134,0.72,26.4c1.11,8.686,3.222,16.494,6,22.08c1.198,2.407,2.863,5.007,4.56,6.479
	c6.004,5.209,15.847,5.074,26.64,4.561c6.326-0.302,12.886-0.203,18.72-0.48c12.635-0.602,25.16-1.385,37.44-0.96
	c26.232,0.907,49.599,0.48,76.56,0.479c7.278,0,12.45-0.274,16.801-2.399c8.554-4.18,12-13.601,12-26.4
	c-0.001-19.044-0.629-37.48-0.24-57.12c0.113-5.742,0.24-12.378,0.24-18.959c-0.001-6.501,0.6-13.296-0.48-18.961
	c-1.028-5.397-4.09-10.439-7.2-14.399c-9.772-12.446-20.556-22.086-34.56-30.24c-8.884-5.172-19.224-8.921-29.76-13.44
	c-4.641-1.99-9.438-4.104-15.601-6c-5.284-1.626-12.783-4.146-18.479-3.36C240.674,158.183,243.543,175.527,243.941,189.84z
	 M36.342,272.16c-0.346,7.435-0.72,18.2-0.72,26.399c0,8.933-0.389,17.719,1.44,25.44c1.792,7.567,4.016,15.135,8.4,18.72
	c4.162,3.404,9.565,3.962,16.56,4.32c10.532,0.54,20.538,1.44,31.44,1.44c5.625,0,11.14,0.279,15.84-0.721
	c4.978-1.06,8.751-3.729,11.28-6.72c5.278-6.241,9.232-18.69,9.12-30c-0.061-6.137-0.736-12.42-1.2-18.24
	c-0.535-6.71-1.12-12.134-3.36-16.319c-3.707-6.928-12.832-9.778-20.88-12.48c-12.858-4.316-23.434-8.088-34.32-13.2
	c-5.512-2.588-10.529-6.032-16.56-7.44c-1.739-0.405-5.025-0.433-6.24-0.239C35.886,244.912,36.877,260.657,36.342,272.16z"/>
</svg>
