<?xml version="1.0" encoding="utf-8"?>
<!-- Generator: Adobe Illustrator 14.0.0, SVG Export Plug-In . SVG Version: 6.00 Build 43363)  -->
<!DOCTYPE svg PUBLIC "-//W3C//DTD SVG 1.1//EN" "http://www.w3.org/Graphics/SVG/1.1/DTD/svg11.dtd">
<svg version="1.1" id="Calque_1" xmlns="http://www.w3.org/2000/svg" xmlns:xlink="http://www.w3.org/1999/xlink" x="0px" y="0px"
	 width="300px" height="300px" viewBox="0 0 300 300" enable-background="new 0 0 300 300" xml:space="preserve">
<path fill-rule="evenodd" clip-rule="evenodd" d="M185.926,61.542c1.912,0,3.824,0,5.736,0c0.024,0.086,0.093,0.128,0.221,0.11
	c4.46,0.132,8.968,0.331,13.458,0.331c4.408,0,8.755,0.538,12.906,0.882c2.124,0.177,4.169,0.297,6.177,0.662
	c3.665,0.668,7.957,1.61,10.259,3.641c2.576,2.271,3.051,5.915,3.42,10.369c0.179,2.155,0.331,4.361,0.441,6.508
	c0.223,4.344,0.115,8.93,0.331,13.458c0.205,4.311,0.551,8.765,0.551,13.237c0,9.333-0.254,18.525,0.441,27.246
	c0.343,4.302,0.807,8.553,0.993,12.796c0.196,4.473,0.11,9.092,0.11,13.678c0,4.572,0.173,9.124,0.221,13.679
	c0.046,4.415-0.196,8.978-0.221,13.568c-0.024,4.583,0,9.221,0,13.898c0,4.634,0.106,9.224-0.441,13.348
	c-0.262,1.972-0.716,3.996-1.104,5.847c-1.42,6.787-3.432,10.92-11.692,10.92c-4.694,0-10.062-0.94-14.892,0
	c-2.127,0.415-4.179,1.063-6.288,1.545c-6.635,1.515-14.421,1.103-22.503,1.103c-5.235,0.001-10.394,0.204-15.443,0
	c-2.523-0.102-5.032-0.238-7.501-0.331c-2.644-0.099-5.236,0.008-7.832-0.11c-4.919-0.223-9.772-0.715-14.56-1.103
	c-2.505-0.203-4.818-0.187-7.28,0.11c-2.471,0.298-4.989,0.552-7.502,0.441c-2.268-0.1-4.393-0.673-6.618-1.214
	c-6.413-1.559-14.49-1.147-21.731-0.11c-4.356,0.624-8.64,1.655-14.009,1.655c-5.118-0.001-10.573,1.031-15.002-0.11
	c-3.599-0.928-6.836-4.426-7.501-8.163c-0.42-2.355-0.221-4.965-0.221-7.611c0-2.604-0.003-5.271,0.11-7.832
	c0.222-5.043,0.741-9.785,1.103-14.672c0.362-4.901,0.331-9.942,0.331-15.442c0-5.262,0.331-10.337,0.331-15.334
	c0-5.091,0.372-10.101,0.772-15.002c0.382-4.678,1.161-9.534,1.213-14.45c0.027-2.582-0.082-5.212,0-7.832
	c0.08-2.536,0.248-5.146,0.221-7.722c-0.052-4.99-0.441-10.055-0.441-15.223c0-5.041-0.304-10.114-0.661-15.112
	c-0.327-4.555-0.731-9.837-0.221-14.781c0.264-2.559,0.233-5.108,0.661-7.171c1.465-7.06,9.776-5.38,17.87-5.735
	c5.348-0.235,10.508-0.389,15.224-0.552c10.366-0.358,21.062,0.316,30.666-0.331c4.863-0.328,9.692-0.768,14.561-1.104
	c4.835-0.333,9.658-0.998,14.56-1.213C165.191,61.873,175.339,62.129,185.926,61.542z M91.281,78.419
	c-5.108,1.168-9.978,2.168-11.803,6.287c-0.943,2.127-0.982,4.849-1.324,7.722c-0.329,2.77-0.552,5.65-0.552,8.494
	c0,5.781,0.493,11.507,0,17.429c-0.477,5.728-0.812,11.248-1.434,16.656c-0.296,2.582-0.316,5.781-0.221,8.825
	c0.094,3,0.055,6.072,0.883,8.163c1.393,3.515,4.723,4.904,8.493,6.618c2.734,1.243,5.522,2.375,8.163,3.31
	c2.914,1.031,5.835,1.77,8.825,2.647c2.928,0.859,5.831,1.782,9.045,2.427c3.236,0.649,6.862,0.931,10.259,1.214
	c3.439,0.286,6.627,1.119,9.707,1.765c3.04,0.637,6.376,1.02,9.818,1.654c3.076,0.567,7.568,1.123,10.7,0.441
	c5.621-1.225,6.287-6.123,6.287-13.017c0-5.676,0.238-11.761,0-17.428c-0.133-3.161-0.224-5.989-1.213-7.832
	c-2.702-5.034-11.542-3.428-16.326-0.772c-3.163,1.756-5.271,4.48-6.178,7.611c-0.788,2.723,0.018,6.798-1.103,9.377
	c-1.131,2.602-4.471,4.546-8.384,3.75c-2.258-0.459-3.861-2.035-4.412-4.412c-0.868-3.745,0.712-6.919,0.44-10.7
	c-0.158-2.223-0.977-4.139-1.434-6.178c-0.448-1.998-0.767-4.51-0.331-7.06c0.623-3.64,3.045-6.348,6.729-7.17
	c2.263-0.505,4.85-0.331,7.391-0.331c5.12,0,9.589-0.919,13.898-1.654c4.497-0.768,7.592-1.768,9.045-5.405
	c1.471-3.683,1.16-10.48,0.552-14.781c-0.329-2.324-0.884-4.74-1.324-6.84c-0.502-2.396-0.906-4.545-1.875-6.287
	c-2.643-4.756-9.383-5.295-16.657-5.295c-7.993,0-16.312-0.221-24.157-0.221c-4.166,0-8.699-0.379-12.024-0.221
	C97.807,77.346,94.529,77.676,91.281,78.419z M172.248,84.044c-0.952,1.671-1.264,4.039-1.545,6.729
	c-0.236,2.268-0.552,4.876-0.552,7.722c0,2.669,0.123,5.666,0,8.272c-0.131,2.785,0.021,5.485,0.883,7.171
	c1.896,3.705,8.089,4.564,12.686,5.626c4.293,0.99,8.059,2.09,11.804,3.419c6.279,2.229,10.797,4.03,16.325,6.509
	c1.881,0.843,3.681,1.854,5.736,1.985c5.519,0.351,6.493-3.73,6.729-8.936c0.188-4.152,0.17-7.553,0.332-11.913
	c0.146-3.971,0.44-8.299,0.44-11.803c0-4.438-0.335-10.981-1.985-13.899c-2.225-3.933-6.838-4.162-12.906-3.971
	c-3.681,0.115-7.146,0-10.7,0c-3.605,0-7.121,0.152-10.479,0c-3.487-0.159-7.363-0.587-10.479-0.331
	C175.737,80.855,173.613,81.648,172.248,84.044z M170.924,148.796c0.264,9.485,0.561,15.583,2.537,23.496
	c0.802,3.209,1.884,7.815,0.883,11.473c-0.938,3.43-4.099,5.866-7.391,6.397c-8.094,1.307-14.606-1.557-21.841-1.875
	c-2.265-0.1-5.235-0.146-7.501,0.552c-2.614,0.804-4.194,2.707-4.633,5.515c-0.542,3.472-0.154,8.335,0.331,12.135
	c0.51,3.992,1.48,7.581,2.758,10.148c0.55,1.106,1.315,2.301,2.096,2.979c2.76,2.394,7.283,2.332,12.244,2.096
	c2.907-0.139,5.922-0.094,8.604-0.221c5.807-0.276,11.563-0.637,17.208-0.441c12.058,0.417,22.797,0.221,35.188,0.221
	c3.346,0,5.723-0.126,7.723-1.104c3.932-1.921,5.516-6.251,5.516-12.134c-0.001-8.753-0.289-17.227-0.111-26.254
	c0.053-2.639,0.111-5.689,0.111-8.714c-0.001-2.988,0.275-6.111-0.222-8.715c-0.473-2.48-1.88-4.798-3.309-6.618
	c-4.492-5.721-9.448-10.151-15.885-13.899c-4.083-2.377-8.836-4.101-13.679-6.178c-2.133-0.914-4.337-1.886-7.17-2.757
	c-2.429-0.748-5.876-1.906-8.494-1.545C169.422,134.246,170.74,142.218,170.924,148.796z M75.506,186.633
	c-0.159,3.417-0.331,8.365-0.331,12.134c0,4.105-0.179,8.144,0.662,11.692c0.824,3.479,1.846,6.956,3.861,8.604
	c1.912,1.564,4.396,1.82,7.611,1.985c4.84,0.248,9.439,0.662,14.45,0.662c2.586,0,5.12,0.129,7.28-0.331
	c2.288-0.487,4.022-1.714,5.185-3.089c2.427-2.868,4.243-8.591,4.191-13.788c-0.027-2.821-0.338-5.709-0.551-8.384
	c-0.246-3.084-0.515-5.577-1.545-7.501c-1.704-3.185-5.897-4.494-9.597-5.736c-5.91-1.984-10.771-3.718-15.774-6.067
	c-2.533-1.189-4.839-2.772-7.611-3.42c-0.799-0.186-2.31-0.198-2.868-0.109C75.297,174.108,75.752,181.346,75.506,186.633z"/>
</svg>
